name analog
datacolumns 19
datarows 51
range 0.0 0.025
endheader
time	ground_force_vx	ground_force_vy	ground_force_vz	ground_force_px	ground_force_py	ground_force_pz	l_ground_force_vx	l_ground_force_vy	l_ground_force_vz	l_ground_force_px	l_ground_force_py	l_ground_force_pz	ground_torque_x	ground_torque_y	ground_torque_z	l_ground_torque_x	l_ground_torque_y	l_ground_torque_z
0.0	-0.0	-0.0	-0.0	-0.0	-0.0	-0.0	-1.5783759355545044	4.656599521636963	-876.5639038085938	-0.0	-0.0	-0.0	-0.0	-0.0	-0.0	244333.328125	3156.299560546875	-1635.5677490234375
0.0005	-0.0	-0.0	-0.0	-0.0	-0.0	-0.0	-1.4833595752716064	3.9683220386505127	-877.6942138671875	-0.0	-0.0	-0.0	-0.0	-0.0	-0.0	243771.625	2991.349609375	-1744.02490234375
0.001	-0.0	-0.0	-0.0	-0.0	-0.0	-0.0	-1.153240203857422	3.9869327545166016	-876.518310546875	-0.0	-0.0	-0.0	-0.0	-0.0	-0.0	243728.1875	2768.411865234375	-1722.413818359375
0.0015	-0.0	-0.0	-0.0	-0.0	-0.0	-0.0	-0.90604966878891	3.778973817825317	-875.7965087890625	-0.0	-0.0	-0.0	-0.0	-0.0	-0.0	243144.859375	2790.101806640625	-1635.4293212890625
0.002	-0.0	-0.0	-0.0	-0.0	-0.0	-0.0	-0.6273643970489502	3.791471481323242	-877.36767578125	-0.0	-0.0	-0.0	-0.0	-0.0	-0.0	242970.875	2797.53173828125	-1637.41455078125
0.0025	-0.0	-0.0	-0.0	-0.0	-0.0	-0.0	-0.9308093786239624	3.683903932571411	-877.1953735351562	-0.0	-0.0	-0.0	-0.0	-0.0	-0.0	242580.640625	2215.798583984375	-1713.790283203125
0.003	-0.0	-0.0	-0.0	-0.0	-0.0	-0.0	-1.1662155389785769	3.62764835357666	-880.1345825195312	-0.0	-0.0	-0.0	-0.0	-0.0	-0.0	242920.828125	2444.80126953125	-1635.76904296875
0.0035	-0.0	-0.0	-0.0	-0.0	-0.0	-0.0	-1.4062472581863403	3.709510803222656	-880.6378784179688	-0.0	-0.0	-0.0	-0.0	-0.0	-0.0	242642.984375	2074.212890625	-1834.83935546875
0.004	-0.0	-0.0	-0.0	-0.0	-0.0	-0.0	-1.3306617736816406	3.7846837043762207	-883.5208129882812	-0.0	-0.0	-0.0	-0.0	-0.0	-0.0	242401.421875	2008.015380859375	-1720.4993896484375
0.0045000000000000005	-0.0	-0.0	-0.0	-0.0	-0.0	-0.0	-1.4682179689407349	3.667494773864746	-883.0567016601562	-0.0	-0.0	-0.0	-0.0	-0.0	-0.0	242307.125	1821.3907470703125	-1693.1846923828125
0.005	-0.0	-0.0	-0.0	-0.0	-0.0	-0.0	-1.5013641119003296	3.274592161178589	-884.750244140625	-0.0	-0.0	-0.0	-0.0	-0.0	-0.0	242284.0	1269.01025390625	-1542.76611328125
0.0055	-0.0	-0.0	-0.0	-0.0	-0.0	-0.0	-1.4606437683105469	3.091259002685547	-884.7769165039062	-0.0	-0.0	-0.0	-0.0	-0.0	-0.0	241415.890625	1025.4373779296875	-1364.799560546875
0.006	-0.0	-0.0	-0.0	-0.0	-0.0	-0.0	-0.9895227551460266	1.943077087402344	-883.4075927734375	-0.0	-0.0	-0.0	-0.0	-0.0	-0.0	240767.453125	912.4282836914062	-1214.14453125
0.006500000000000001	-0.0	-0.0	-0.0	-0.0	-0.0	-0.0	-0.716579258441925	1.0598602294921875	-882.6552734375	-0.0	-0.0	-0.0	-0.0	-0.0	-0.0	239749.28125	998.9817504882812	-1159.44287109375
0.007	-0.0	-0.0	-0.0	-0.0	-0.0	-0.0	-0.9688675403594972	-0.6182518005371094	-882.2514038085938	-0.0	-0.0	-0.0	-0.0	-0.0	-0.0	238826.890625	743.1234130859375	-915.7825927734376
0.0075	-0.0	-0.0	-0.0	-0.0	-0.0	-0.0	-0.9687925577163696	-2.045389175415039	-878.8975219726562	-0.0	-0.0	-0.0	-0.0	-0.0	-0.0	237739.765625	469.74560546875	-831.8016357421875
0.008	-0.0	-0.0	-0.0	-0.0	-0.0	-0.0	-1.4939497709274292	-3.967440128326416	-877.7116088867188	-0.0	-0.0	-0.0	-0.0	-0.0	-0.0	236799.4375	717.4177856445312	-748.3973388671875
0.0085	-0.0	-0.0	-0.0	-0.0	-0.0	-0.0	-1.52229905128479	-4.893075942993164	-874.9739990234375	-0.0	-0.0	-0.0	-0.0	-0.0	-0.0	235985.203125	898.966552734375	-877.9859619140625
0.009000000000000001	-0.0	-0.0	-0.0	-0.0	-0.0	-0.0	-2.6254093647003174	-6.087045192718506	-872.1525268554688	-0.0	-0.0	-0.0	-0.0	-0.0	-0.0	234821.703125	1085.771484375	-809.1461181640625
0.0095	-0.0	-0.0	-0.0	-0.0	-0.0	-0.0	-1.94439697265625	-6.514179229736328	-870.0573120117188	-0.0	-0.0	-0.0	-0.0	-0.0	-0.0	234117.890625	1306.6072998046875	-673.2048950195312
0.01	-0.0	-0.0	-0.0	-0.0	-0.0	-0.0	-1.8775570392608645	-7.220528602600098	-866.6231689453125	-0.0	-0.0	-0.0	-0.0	-0.0	-0.0	233351.75	663.8363647460938	-566.7860717773438
0.0105	-0.0	-0.0	-0.0	-0.0	-0.0	-0.0	-2.1364150047302246	-7.507343292236328	-863.1896362304688	-0.0	-0.0	-0.0	-0.0	-0.0	-0.0	232749.234375	1153.0391845703125	-542.2987060546875
0.011	-0.0	-0.0	-0.0	-0.0	-0.0	-0.0	-2.4912989139556885	-7.257107257843018	-862.6663208007812	-0.0	-0.0	-0.0	-0.0	-0.0	-0.0	232195.890625	1419.320068359375	-713.07861328125
0.0115	-0.0	-0.0	-0.0	-0.0	-0.0	-0.0	-2.476430177688598	-6.2197136878967285	-857.9537353515625	-0.0	-0.0	-0.0	-0.0	-0.0	-0.0	231640.296875	1477.1175537109375	-858.6011352539062
0.012	-0.0	-0.0	-0.0	-0.0	-0.0	-0.0	-2.75003433227539	-4.335259437561035	-855.8595581054688	-0.0	-0.0	-0.0	-0.0	-0.0	-0.0	232012.46875	1577.80078125	-895.4960327148438
0.0125	-0.0	-0.0	-0.0	-0.0	-0.0	-0.0	-2.7576045989990234	-2.384685516357422	-856.758544921875	-0.0	-0.0	-0.0	-0.0	-0.0	-0.0	232412.265625	1625.854248046875	-895.01953125
0.013000000000000001	-0.0	-0.0	-0.0	-0.0	-0.0	-0.0	-2.194833517074585	0.234517753124237	-858.8828735351562	-0.0	-0.0	-0.0	-0.0	-0.0	-0.0	233417.609375	1371.566650390625	-810.10009765625
0.0135	-0.0	-0.0	-0.0	-0.0	-0.0	-0.0	-1.1224277019500732	2.1850340366363525	-862.115966796875	-0.0	-0.0	-0.0	-0.0	-0.0	-0.0	234276.234375	1378.5286865234375	-771.50830078125
0.014	-0.0	-0.0	-0.0	-0.0	-0.0	-0.0	-0.4855960011482239	4.254929065704346	-862.90673828125	-0.0	-0.0	-0.0	-0.0	-0.0	-0.0	235628.8125	1044.5081787109375	-363.0358581542969
0.0145	-0.0	-0.0	-0.0	-0.0	-0.0	-0.0	1.6464096307754517	5.982520580291748	-866.3374633789062	-0.0	-0.0	-0.0	-0.0	-0.0	-0.0	236457.78125	692.6580810546875	-256.4420166015625
0.015	-0.0	-0.0	-0.0	-0.0	-0.0	-0.0	2.371610403060913	7.146230697631836	-869.2638549804688	-0.0	-0.0	-0.0	-0.0	-0.0	-0.0	237339.109375	251.05172729492188	146.5652618408203
0.0155	-0.0	-0.0	-0.0	-0.0	-0.0	-0.0	3.702047348022461	7.92525053024292	-869.4188232421875	-0.0	-0.0	-0.0	-0.0	-0.0	-0.0	237896.046875	-87.60296630859375	411.9820861816406
0.016	-0.0	-0.0	-0.0	-0.0	-0.0	-0.0	4.2820963859558105	7.764350414276123	-871.13330078125	-0.0	-0.0	-0.0	-0.0	-0.0	-0.0	238416.359375	-113.18968963623048	603.6439208984375
0.0165	-0.0	-0.0	-0.0	-0.0	-0.0	-0.0	4.790382385253906	7.507343292236328	-871.0371704101562	-0.0	-0.0	-0.0	-0.0	-0.0	-0.0	238106.015625	-714.4110107421875	838.5935668945312
0.017	-0.0	-0.0	-0.0	-0.0	-0.0	-0.0	5.145225524902344	6.897165298461914	-870.4030151367188	-0.0	-0.0	-0.0	-0.0	-0.0	-0.0	237863.171875	-879.90625	868.3800048828125
0.0175	-0.0	-0.0	-0.0	-0.0	-0.0	-0.0	5.435858726501465	5.85362434387207	-870.0215454101562	-0.0	-0.0	-0.0	-0.0	-0.0	-0.0	237320.984375	-768.934326171875	1008.46826171875
0.018000000000000002	-0.0	-0.0	-0.0	-0.0	-0.0	-0.0	4.590185165405273	4.865898609161377	-868.8189697265625	-0.0	-0.0	-0.0	-0.0	-0.0	-0.0	236888.296875	-715.9696655273438	902.689697265625
0.0185	-0.0	-0.0	-0.0	-0.0	-0.0	-0.0	4.685105800628662	3.775482654571533	-866.5291748046875	-0.0	-0.0	-0.0	-0.0	-0.0	-0.0	236538.53125	-684.2794189453125	783.8651733398438
0.019	-0.0	-0.0	-0.0	-0.0	-0.0	-0.0	3.8062398433685294	3.267902374267578	-866.8779296875	-0.0	-0.0	-0.0	-0.0	-0.0	-0.0	235937.59375	-331.04132080078125	656.1459350585938
0.0195	-0.0	-0.0	-0.0	-0.0	-0.0	-0.0	2.686520338058472	2.351237297058105	-865.1646728515625	-0.0	-0.0	-0.0	-0.0	-0.0	-0.0	235745.40625	-133.21456909179688	331.6208190917969
0.02	-0.0	-0.0	-0.0	-0.0	-0.0	-0.0	1.5165401697158811	1.1187982559204102	-864.6990966796875	-0.0	-0.0	-0.0	-0.0	-0.0	-0.0	235237.796875	350.57293701171875	-46.65382385253906
0.0205	-0.0	-0.0	-0.0	-0.0	-0.0	-0.0	0.371838629245758	0.769513726234436	-865.19775390625	-0.0	-0.0	-0.0	-0.0	-0.0	-0.0	235455.484375	373.3830261230469	-304.7051696777344
0.021	-0.0	-0.0	-0.0	-0.0	-0.0	-0.0	-0.8871078491210938	-0.1139270514249801	-867.2926025390625	-0.0	-0.0	-0.0	-0.0	-0.0	-0.0	235380.109375	938.7210693359376	-534.612548828125
0.021500000000000002	-0.0	-0.0	-0.0	-0.0	-0.0	-0.0	-1.631314992904663	-0.7151658535003662	-865.6148071289062	-0.0	-0.0	-0.0	-0.0	-0.0	-0.0	235689.078125	1520.135498046875	-802.2708740234375
0.022	-0.0	-0.0	-0.0	-0.0	-0.0	-0.0	-2.323890924453736	-1.3161582946777344	-868.689208984375	-0.0	-0.0	-0.0	-0.0	-0.0	-0.0	236312.265625	1557.8682861328125	-1069.8924560546875
0.0225	-0.0	-0.0	-0.0	-0.0	-0.0	-0.0	-3.593411445617676	-1.0598602294921875	-869.6334228515625	-0.0	-0.0	-0.0	-0.0	-0.0	-0.0	236787.890625	1936.1343994140625	-1257.4884033203125
0.023	-0.0	-0.0	-0.0	-0.0	-0.0	-0.0	-3.282299041748047	-0.6890770196914673	-870.4695434570312	-0.0	-0.0	-0.0	-0.0	-0.0	-0.0	237262.65625	2302.556884765625	-1506.560791015625
0.0235	-0.0	-0.0	-0.0	-0.0	-0.0	-0.0	-4.045248985290527	-0.5211071968078613	-872.1807861328125	-0.0	-0.0	-0.0	-0.0	-0.0	-0.0	238159.046875	1998.9488525390625	-1575.203369140625
0.024	-0.0	-0.0	-0.0	-0.0	-0.0	-0.0	-4.151567935943604	1.015458345413208	-873.0545654296875	-0.0	-0.0	-0.0	-0.0	-0.0	-0.0	238708.546875	2365.5546875	-1749.890380859375
0.0245	-0.0	-0.0	-0.0	-0.0	-0.0	-0.0	-3.7258529663085938	1.6781120300292969	-876.4058837890625	-0.0	-0.0	-0.0	-0.0	-0.0	-0.0	239770.0	2308.803955078125	-1859.072509765625
0.025	-0.0	-0.0	-0.0	-0.0	-0.0	-0.0	-3.539395570755005	2.8083016872406006	-877.06884765625	-0.0	-0.0	-0.0	-0.0	-0.0	-0.0	240750.734375	2382.4970703125	-1808.2889404296875
